{"title":"A.Single.Shot.2013.LIMITED.720p.BRRip.x264-Fastbet99","uid":9519149,"size":1488816550,"categoryP":"video","categoryS":"hd___movies","magnet":"?xt=urn:btih:6c2065d377931861d494ba4e1b99c6098a0e008d&amp;dn=A.Single.Shot.2013.LIMITED.720p.BRRip.x264-Fastbet99&amp;tr=udp%3A%2F%2Ftracker.openbittorrent.com%3A80&amp;tr=udp%3A%2F%2Fopen.demonii.com%3A1337&amp;tr=udp%3A%2F%2Ftracker.coppersurfer.tk%3A6969&amp;tr=udp%3A%2F%2Fexodus.desync.com%3A6969","seeders":0,"leechers":1,"uploader":"Fastbet99","files":-1,"time":1390596289,"description":"A Single Shot (2013)\n\nIMDB Info\t\t\t\t : http://www.imdb.com/title/tt1540741\n\nSource\t\t\t\t\t : AMIABLE (Thanks)\nComplete name                            : A.Single.Shot.2013.LIMITED.720p.BRRip.x264-Fastbet99.mp4\nFormat                                   : MPEG-4\nFormat profile                           : Base Media\nCodec ID                                 : isom\nFile size                                : 1.39 GiB\nDuration                                 : 1h 55mn\nOverall bit rate mode                    : Variable\nOverall bit rate                         : 1 715 Kbps\n\nVideo\nID                                       : 1\nFormat                                   : AVC\nFormat/Info                              : Advanced Video Codec\nFormat profile                           : &lt;a class=&quot;__cf_email__&quot; href=&quot;/cdn-cgi/l/email-protection&quot; data-cfemail=&quot;fdb5949a95bdb1c9d3cc&quot;&gt;[email&amp;#160;protected]&lt;/a&gt;&lt;script cf-hash='f9e31' type=&quot;text/javascript&quot;&gt;\n/* &lt;![CDATA[ */!function(){try{var t=&quot;currentScript&quot;in document?document.currentScript:function(){for(var t=document.getElementsByTagName(&quot;script&quot;),e=t.length;e--;)if(t[e].getAttribute(&quot;cf-hash&quot;))return t[e]}();if(t&amp;&amp;t.previousSibling){var e,r,n,i,c=t.previousSibling,a=c.getAttribute(&quot;data-cfemail&quot;);if(a){for(e=&quot;&quot;,r=parseInt(a.substr(0,2),16),n=2;a.length-n;n+=2)i=parseInt(a.substr(n,2),16)^r,e+=String.fromCharCode(i);e=document.createTextNode(e),c.parentNode.replaceChild(e,c)}}}catch(u){}}();/* ]]&gt; */&lt;/script&gt;\nFormat settings, CABAC                   : Yes\nFormat settings, ReFrames                : 4 frames\nCodec ID                                 : avc1\nCodec ID/Info                            : Advanced Video Coding\nDuration                                 : 1h 55mn\nBit rate                                 : 1 615 Kbps\nMaximum bit rate                         : 8 194 Kbps\nWidth                                    : 1 280 pixels\nHeight                                   : 536 pixels\nDisplay aspect ratio                     : 2.40:1\nFrame rate mode                          : Constant\nFrame rate                               : 23.976 fps\nColor space                              : YUV\nChroma subsampling                       : 4:2:0\nBit depth                                : 8 bits\nScan type                                : Progressive\nBits/(Pixel*Frame)                       : 0.098\nStream size                              : 1.31 GiB (94%)\nWriting library                          : x264 core 138 r2358 9e941d1\n\nAudio\nID                                       : 2\nFormat                                   : AAC\nFormat/Info                              : Advanced Audio Codec\nFormat profile                           : LC\nCodec ID                                 : 40\nDuration                                 : 1h 55mn\nBit rate mode                            : Variable\nBit rate                                 : 96.0 Kbps\nMaximum bit rate                         : 153 Kbps\nChannel count                            : 2 channels\nChannel positions                        : Front: L R\nSampling rate                            : 48.0 KHz\nCompression mode                         : Lossy\nStream size                              : 79.3 MiB (6%)\nLanguage                                 : English\n\nText #1\nID                                       : 3\nFormat                                   : Timed Text\nCodec ID                                 : tx3g\nDuration                                 : 1h 49mn\nBit rate mode                            : Variable\nBit rate                                 : 57 bps\nStream size                              : 45.5 KiB (0%)\nTitle                                    : SDH Original\nLanguage                                 : English\n\nText #2\nID                                       : 4\nFormat                                   : Timed Text\nCodec ID                                 : tx3g\nDuration                                 : 1h 49mn\nBit rate mode                            : Variable\nBit rate                                 : 57 bps\nStream size                              : 45.5 KiB (0%)\nTitle                                    : SDH\nLanguage                                 : English\n\nText #3\nID                                       : 5\nFormat                                   : Timed Text\nCodec ID                                 : tx3g\nDuration                                 : 1h 47mn\nBit rate mode                            : Variable\nBit rate                                 : 47 bps\nStream size                              : 36.7 KiB (0%)\nLanguage                                 : English\nEncoder\t\t\t\t\t : Fastbet99\n\nScreenshots\n &lt;a href=&quot;\nhttp://lookpic.com/O/i2/1250/VA2DO2W.jpeg&quot; rel=&quot;nofollow&quot; target=&quot;_NEW&quot;&gt;\nhttp://lookpic.com/O/i2/1250/VA2DO2W.jpeg&lt;/a&gt;\n\nStairway To heaven - Help People With Keep Seed As Long You Can","torrent":{"xt":"urn:btih:6c2065d377931861d494ba4e1b99c6098a0e008d","amp;dn":"A.Single.Shot.2013.LIMITED.720p.BRRip.x264-Fastbet99","amp;tr":["udp%3A%2F%2Ftracker.openbittorrent.com%3A80","udp%3A%2F%2Fopen.demonii.com%3A1337","udp%3A%2F%2Ftracker.coppersurfer.tk%3A6969","udp%3A%2F%2Fexodus.desync.com%3A6969"],"infoHash":"6c2065d377931861d494ba4e1b99c6098a0e008d","infoHashBuffer":{"type":"Buffer","data":[108,32,101,211,119,147,24,97,212,148,186,78,27,153,198,9,138,14,0,141]},"announce":[],"urlList":[]}}